<?xml version="1.0" encoding="UTF-8"?>
<svg version="1.1" xmlns="http://www.w3.org/2000/svg" width="500" height="500">
<path d="M0 0 C3.85054285 3.32898452 7.47992727 6.8534108 11.09570312 10.43408203 C11.89105469 11.16884766 12.68640625 11.90361328 13.50585938 12.66064453 C35.88790796 33.7400342 49.38637263 65.07726531 52.09570312 95.43408203 C52.16273438 96.10987305 52.22976563 96.78566406 52.29882812 97.48193359 C55.29280876 128.67402987 48.27288405 160.09092642 31.09570312 186.43408203 C30.46148437 187.45759766 29.82726562 188.48111328 29.17382812 189.53564453 C23.846087 197.60282701 17.50878375 204.43640538 10.72070312 211.30908203 C9.85944824 212.18878662 8.99819336 213.06849121 8.11083984 213.97485352 C1.96016597 220.06721895 -4.54143933 224.89723931 -11.90429688 229.43408203 C-12.93586914 230.07265137 -12.93586914 230.07265137 -13.98828125 230.72412109 C-45.8056267 249.94489844 -83.92075328 257.53156797 -120.59863281 249.02490234 C-152.27334398 240.90834146 -180.97232948 223.69860157 -200.90429688 197.43408203 C-201.31035156 196.90830566 -201.71640625 196.3825293 -202.13476562 195.84082031 C-208.98688645 186.91988608 -214.26309621 177.66773771 -218.90429688 167.43408203 C-219.44957031 166.26619141 -219.99484375 165.09830078 -220.55664062 163.89501953 C-226.9719916 149.17072798 -230.5834197 132.5008605 -230.90429688 116.43408203 C-230.94296875 115.60263672 -230.98164063 114.77119141 -231.02148438 113.91455078 C-232.02238811 77.715199 -218.68742872 44.2575143 -195.65429688 16.87158203 C-195.14672852 16.26306396 -194.63916016 15.6545459 -194.11621094 15.02758789 C-191.6325303 12.13228602 -189.54362282 9.75983648 -185.90429688 8.43408203 C-185.90429688 7.77408203 -185.90429688 7.11408203 -185.90429688 6.43408203 C-183.79581614 4.59853408 -181.68350012 2.88023647 -179.46679688 1.18408203 C-178.49456177 0.4349353 -178.49456177 0.4349353 -177.50268555 -0.3293457 C-175.64404302 -1.75177857 -173.77667457 -3.1616347 -171.90429688 -4.56591797 C-171.15664062 -5.12923828 -170.40898437 -5.69255859 -169.63867188 -6.27294922 C-119.77843985 -41.43860066 -47.18603754 -38.80144164 0 0 Z M-121.90429688 6.43408203 C-121.90429688 16.00408203 -121.90429688 25.57408203 -121.90429688 35.43408203 C-134.11429688 35.43408203 -146.32429688 35.43408203 -158.90429688 35.43408203 C-158.90429688 41.70408203 -158.90429688 47.97408203 -158.90429688 54.43408203 C-152.78950958 55.22097756 -152.78950958 55.22097756 -146.66870117 55.95825195 C-145.90468994 56.06758057 -145.14067871 56.17690918 -144.35351562 56.28955078 C-143.57322998 56.38905029 -142.79294434 56.4885498 -141.98901367 56.59106445 C-138.88658183 57.84562555 -138.31459353 59.41908438 -136.90429688 62.43408203 C-136.62395857 65.33859262 -136.50388725 68.02359517 -136.53198242 70.92456055 C-136.52833176 71.76742615 -136.52468109 72.61029175 -136.5209198 73.47869873 C-136.51283218 76.25700197 -136.52640837 79.03471875 -136.54101562 81.81298828 C-136.5415344 83.74682108 -136.54101603 85.68065441 -136.539505 87.61448669 C-136.53959465 91.6637257 -136.55000832 95.71276526 -136.56811523 99.76196289 C-136.5908172 104.95287461 -136.59134285 110.14349538 -136.58459759 115.33444309 C-136.58125689 119.32613207 -136.58788936 123.31775468 -136.59772682 127.30943108 C-136.60157623 129.22359813 -136.60272811 131.13777256 -136.60114098 133.05194283 C-136.60077026 135.72577117 -136.61339179 138.39922583 -136.62963867 141.07299805 C-136.62716125 141.86427597 -136.62468384 142.65555389 -136.62213135 143.47080994 C-136.69051894 150.52022471 -136.69051894 150.52022471 -138.90429688 153.43408203 C-141.76757812 154.26220703 -141.76757812 154.26220703 -145.21679688 154.68408203 C-146.91255859 154.90837891 -146.91255859 154.90837891 -148.64257812 155.13720703 C-151.42456954 155.39041823 -154.11419813 155.49689851 -156.90429688 155.43408203 C-157.2222915 157.05801573 -157.53330665 158.68331605 -157.84179688 160.30908203 C-158.01582031 161.21400391 -158.18984375 162.11892578 -158.36914062 163.05126953 C-159.07075734 167.48630656 -159.45750612 171.96617453 -159.90429688 176.43408203 C-147.36429687 176.43408203 -134.82429688 176.43408203 -121.90429688 176.43408203 C-121.90429688 186.33408203 -121.90429688 196.23408203 -121.90429688 206.43408203 C-118.78992188 206.45470703 -115.67554688 206.47533203 -112.46679688 206.49658203 C-111.48396729 206.50568604 -110.5011377 206.51479004 -109.48852539 206.52416992 C-108.71951904 206.52666748 -107.9505127 206.52916504 -107.15820312 206.53173828 C-106.36744385 206.5369751 -105.57668457 206.54221191 -104.76196289 206.54760742 C-102.88836999 206.63904112 -102.88836999 206.63904112 -101.90429688 205.43408203 C-101.36533083 195.78024898 -102.23463459 186.06047733 -102.90429688 176.43408203 C-97.62429687 176.43408203 -92.34429687 176.43408203 -86.90429688 176.43408203 C-86.90429688 186.33408203 -86.90429688 196.23408203 -86.90429688 206.43408203 C-80.30429687 206.43408203 -73.70429688 206.43408203 -66.90429688 206.43408203 C-66.90429688 196.86408203 -66.90429688 187.29408203 -66.90429688 177.43408203 C-64.03742188 177.20720703 -61.17054688 176.98033203 -58.21679688 176.74658203 C-44.7753609 175.45062016 -31.93617507 171.28675966 -22.59179688 161.05908203 C-14.68982755 151.07764709 -12.94653504 139.93059359 -13.90429688 127.43408203 C-15.52131676 117.78631635 -20.02401562 111.28590449 -27.90429688 105.62158203 C-31.46323204 103.26687871 -35.01040151 101.17608785 -38.90429688 99.43408203 C-38.39898437 99.02416016 -37.89367187 98.61423828 -37.37304688 98.19189453 C-36.72335937 97.65306641 -36.07367188 97.11423828 -35.40429688 96.55908203 C-34.75460937 96.02541016 -34.10492188 95.49173828 -33.43554688 94.94189453 C-32.93023437 94.44431641 -32.42492187 93.94673828 -31.90429688 93.43408203 C-31.90429688 92.77408203 -31.90429688 92.11408203 -31.90429688 91.43408203 C-31.24429688 91.43408203 -30.58429688 91.43408203 -29.90429688 91.43408203 C-24.6936452 83.27072774 -22.60877058 74.68902928 -24.33398438 65.02783203 C-25.98246593 58.4339058 -29.08300904 53.24441239 -33.90429688 48.43408203 C-35.38929688 47.93908203 -35.38929688 47.93908203 -36.90429688 47.43408203 C-36.90429688 46.77408203 -36.90429688 46.11408203 -36.90429688 45.43408203 C-39.08806453 44.30130935 -41.27586816 43.17785414 -43.46679688 42.05908203 C-44.38041992 41.58341797 -44.38041992 41.58341797 -45.3125 41.09814453 C-52.87225671 37.25826811 -59.26068448 36.29844327 -67.90429688 35.43408203 C-67.90429688 25.86408203 -67.90429688 16.29408203 -67.90429688 6.43408203 C-72.32835937 6.40314453 -72.32835937 6.40314453 -76.84179688 6.37158203 C-77.77241943 6.36247803 -78.70304199 6.35337402 -79.66186523 6.34399414 C-80.39026611 6.34149658 -81.11866699 6.33899902 -81.86914062 6.33642578 C-82.61800537 6.33118896 -83.36687012 6.32595215 -84.13842773 6.32055664 C-85.93097426 6.24066451 -85.93097426 6.24066451 -86.90429688 7.43408203 C-86.991968 9.5067028 -87.01125561 11.58228497 -87.00195312 13.65673828 C-86.99873047 14.91679687 -86.99550781 16.17685547 -86.9921875 17.47509766 C-86.98383091 18.81559312 -86.97536595 20.15608791 -86.96679688 21.49658203 C-86.96178348 22.84098145 -86.95722029 24.18538263 -86.953125 25.52978516 C-86.94129184 28.83123636 -86.92335573 32.13266463 -86.90429688 35.43408203 C-91.85429687 35.10408203 -96.80429688 34.77408203 -101.90429688 34.43408203 C-102.23429687 25.19408203 -102.56429687 15.95408203 -102.90429688 6.43408203 C-109.17429688 6.43408203 -115.44429687 6.43408203 -121.90429688 6.43408203 Z M-195.90429688 77.43408203 C-195.99825745 79.36714701 -196.02173205 81.30367041 -196.01782227 83.23901367 C-196.01774673 84.48022476 -196.0176712 85.72143585 -196.01759338 87.0002594 C-196.01248598 88.36491943 -196.00726997 89.72957905 -196.00195312 91.09423828 C-196.00008888 92.48286386 -195.99866501 93.8714901 -195.99766541 95.26011658 C-195.99384074 98.92129318 -195.98401091 102.58243033 -195.97296143 106.24359131 C-195.9627462 109.97700466 -195.95816755 113.71042437 -195.953125 117.44384766 C-195.94238858 124.7739438 -195.92531279 132.10400739 -195.90429688 139.43408203 C-191.77943477 139.52222011 -187.65481949 139.57485281 -183.52929688 139.62158203 C-182.37300781 139.64671875 -181.21671875 139.67185547 -180.02539062 139.69775391 C-170.38088573 139.779487 -161.6239806 139.00232256 -154.36914062 132.10595703 C-146.22818146 122.81440897 -145.9137461 111.57087413 -146.60986328 99.84667969 C-147.45610871 92.91251942 -151.10306031 87.69717412 -155.34179688 82.37158203 C-160.98891366 78.1018108 -167.03177657 76.30842572 -174.06835938 76.30126953 C-175.27234375 76.29998047 -176.47632813 76.29869141 -177.71679688 76.29736328 C-178.97492188 76.30123047 -180.23304688 76.30509766 -181.52929688 76.30908203 C-182.79515625 76.30521484 -184.06101562 76.30134766 -185.36523438 76.29736328 C-186.56664062 76.29865234 -187.76804687 76.29994141 -189.00585938 76.30126953 C-190.66609131 76.30296143 -190.66609131 76.30296143 -192.35986328 76.3046875 C-194.83944308 76.14580109 -194.83944308 76.14580109 -195.90429688 77.43408203 Z M-1.27929688 118.74658203 C-4.46806707 122.8654102 -6.90429688 127.11444527 -6.90429688 132.43408203 C-8.55429687 132.76408203 -10.20429688 133.09408203 -11.90429688 133.43408203 C-11.90429688 135.08408203 -11.90429688 136.73408203 -11.90429688 138.43408203 C-10.25429688 138.43408203 -8.60429687 138.43408203 -6.90429688 138.43408203 C-6.90429688 140.08408203 -6.90429688 141.73408203 -6.90429688 143.43408203 C-9.37929688 143.92908203 -9.37929688 143.92908203 -11.90429688 144.43408203 C-11.90429688 145.75408203 -11.90429688 147.07408203 -11.90429688 148.43408203 C-11.288125 148.49982422 -10.67195312 148.56556641 -10.03710938 148.63330078 C-7.90429688 149.43408203 -7.90429688 149.43408203 -6.70898438 151.57861328 C-6.4021875 152.45904297 -6.09539062 153.33947266 -5.77929688 154.24658203 C-3.41890492 161.34654392 -3.41890492 161.34654392 2.03320312 166.12158203 C3.06767578 166.74613281 3.06767578 166.74613281 4.12304688 167.38330078 C8.34636826 169.63295118 12.40599066 169.93991939 17.09570312 169.43408203 C19.93657459 168.54868614 22.95502998 167.57475517 25.09570312 165.43408203 C25.16718511 164.08164286 25.17969767 162.72573836 25.15820312 161.37158203 C25.13757813 160.07220703 25.11695313 158.77283203 25.09570312 157.43408203 C23.94070313 157.78470703 22.78570312 158.13533203 21.59570312 158.49658203 C16.9727023 159.619545 13.72440553 159.66840267 9.09570312 158.43408203 C6.35854272 155.28634756 5.09570312 153.6336492 5.09570312 149.43408203 C9.71570313 149.10408203 14.33570313 148.77408203 19.09570312 148.43408203 C19.42570312 146.78408203 19.75570312 145.13408203 20.09570312 143.43408203 C14.48570312 143.43408203 8.87570312 143.43408203 3.09570312 143.43408203 C3.09570312 141.78408203 3.09570312 140.13408203 3.09570312 138.43408203 C8.70570313 138.43408203 14.31570313 138.43408203 20.09570312 138.43408203 C20.59070313 136.94908203 20.59070313 136.94908203 21.09570312 135.43408203 C21.75570312 135.43408203 22.41570312 135.43408203 23.09570312 135.43408203 C23.09570312 134.44408203 23.09570312 133.45408203 23.09570312 132.43408203 C16.82570313 132.43408203 10.55570313 132.43408203 4.09570312 132.43408203 C8.09570312 124.43408203 8.09570312 124.43408203 11.09570312 122.43408203 C16.08728992 121.93492335 21.23817267 122.13874058 26.09570312 123.43408203 C26.30195313 122.15533203 26.50820313 120.87658203 26.72070312 119.55908203 C26.83671875 118.83978516 26.95273437 118.12048828 27.07226562 117.37939453 C27.08 116.73744141 27.08773437 116.09548828 27.09570312 115.43408203 C23.68818895 112.02656786 19.39149126 111.57805849 14.72070312 111.05908203 C8.31399257 111.72184519 3.09219 113.93035331 -1.27929688 118.74658203 Z " fill="#7E58C9" transform="translate(338.904296875,135.56591796875)"/>
<path d="M0 0 C31.90837905 0.04190659 31.90837905 0.04190659 40.62915039 7.90136719 C45.2575915 13.05132279 46.22512659 17.46123254 46.12524414 24.33496094 C45.46000412 29.14971789 43.33938882 32.0274468 39.73071289 35.19042969 C29.4086992 42.14271382 18.18557462 42.49050015 6.10571289 42.31542969 C4.31327148 42.30189453 4.31327148 42.30189453 2.48461914 42.28808594 C-0.43356545 42.26474046 -3.35131487 42.23199624 -6.26928711 42.19042969 C-6.29393349 36.36971346 -6.31212141 30.54902735 -6.32421875 24.72827148 C-6.32925978 22.74649527 -6.33609249 20.7647228 -6.34472656 18.78295898 C-6.35680226 15.9409086 -6.36251756 13.09890721 -6.36694336 10.25683594 C-6.37210464 9.36517227 -6.37726593 8.47350861 -6.38258362 7.55482483 C-6.38277887 5.43302367 -6.33138741 3.31132189 -6.26928711 1.19042969 C-4.53820574 -0.54065169 -2.30920548 0.02529431 0 0 Z " fill="#7E58C8" transform="translate(242.269287109375,248.8095703125)"/>
<path d="M0 0 C29.61884368 -0.56959315 29.61884368 -0.56959315 40 7 C43.87847692 10.87847692 44.31322031 14.20389188 44.5 19.5 C44.31917096 24.79829088 43.82168843 28.07774082 40 32 C31.65928611 38.95059491 21.7827377 39.43214173 11.375 39.1875 C5.744375 39.0946875 5.744375 39.0946875 0 39 C0 26.13 0 13.26 0 0 Z " fill="#7E59C8" transform="translate(236,192)"/>
<path d="M0 0 C14 0 14 0 19 3 C22.96792331 8.09924652 23.68241366 13.72185384 23.5625 20 C23.55444336 20.79019531 23.54638672 21.58039063 23.53808594 22.39453125 C23.36002765 27.56894795 22.66116995 31.4517734 19.484375 35.6875 C13.389183 41.07693293 9.02155312 39 0 39 C0 26.13 0 13.26 0 0 Z " fill="#7D58C7" transform="translate(156,224)"/>
<path d="M0 0 C2.71204739 2.71204739 3.64118756 5.92369595 5 9.4375 C10.4331608 23.02186568 17.01288574 36.40013706 26 48 C26.82973485 49.10654012 27.6591361 50.21333044 28.48828125 51.3203125 C37.60707394 63.35187062 47.62785368 73.23639636 60 82 C60.8559375 82.62777344 61.711875 83.25554687 62.59375 83.90234375 C68.46989775 88.15139362 74.55595056 91.68568815 81 95 C81.96558838 95.49814209 81.96558838 95.49814209 82.95068359 96.00634766 C85.06771044 97.09475142 87.18905742 98.17417107 89.3125 99.25 C89.9823291 99.591521 90.6521582 99.93304199 91.34228516 100.28491211 C95.1557445 102.19449403 98.90503032 103.75563712 103 105 C98.93795933 106.35401356 96.37050469 104.93327998 92.5625 103.4375 C91.84529785 103.16010986 91.1280957 102.88271973 90.38916016 102.59692383 C74.23293674 96.23349715 60.09897257 87.3524429 47 76 C45.75476563 74.95585937 45.75476563 74.95585937 44.484375 73.890625 C24.58475401 56.74441069 10.16912628 33.80264846 2 9 C1.62746094 8.12859375 1.25492187 7.2571875 0.87109375 6.359375 C0 4 0 4 0 0 Z " fill="#F3F3FB" transform="translate(99,289)"/>
<path d="M0 0 C2.64 1.32 5.28 2.64 8 4 C4 5 4 5 1 4 C-7.91 4 -16.82 4 -26 4 C-26.33 24.46 -26.66 44.92 -27 66 C-10.44869178 65.56747462 -10.44869178 65.56747462 6 64 C5 66 5 66 3.13671875 66.86035156 C-3.77065706 69.06090709 -9.80694632 69.23938619 -17 68.75 C-18.03511719 68.69714844 -19.07023438 68.64429688 -20.13671875 68.58984375 C-27.66683542 68.16658229 -27.66683542 68.16658229 -30 67 C-31.24329201 63.67943623 -31.03502176 60.5346422 -30.87890625 57.03125 C-30.83040527 55.83274414 -30.7819043 54.63423828 -30.73193359 53.39941406 C-30.64806396 51.4692041 -30.64806396 51.4692041 -30.5625 49.5 C-30.13883421 38.7475406 -29.88555867 28.0114007 -29.875 17.25 C-29.87056885 16.04923828 -29.8661377 14.84847656 -29.86157227 13.61132812 C-29.86342529 12.50724609 -29.86527832 11.40316406 -29.8671875 10.265625 C-29.86831543 9.29399414 -29.86944336 8.32236328 -29.87060547 7.32128906 C-29.84745455 4.97447419 -29.84745455 4.97447419 -31 3 C-27.1906748 1.22938862 -24.26450987 0.77038087 -20.078125 0.83984375 C-18.41716797 0.8562793 -18.41716797 0.8562793 -16.72265625 0.87304688 C-15.00369141 0.90495117 -15.00369141 0.90495117 -13.25 0.9375 C-10.96360218 0.9717579 -8.67713831 1.00193805 -6.390625 1.02734375 C-4.8751709 1.05429321 -4.8751709 1.05429321 -3.32910156 1.08178711 C-1.03909936 1.26638477 -1.03909936 1.26638477 0 0 Z " fill="#7158A4" transform="translate(170,209)"/>
<path d="M0 0 C5.73837315 0.88997917 10.06286953 2.32911561 14.859375 5.60546875 C17.20336381 7.13248336 19.61903723 8.32050968 22.125 9.5625 C28.97780048 13.25903138 34.53667693 18.27013726 40.28320312 23.45947266 C41.89479155 24.90559367 43.5280361 26.32124299 45.171875 27.73046875 C56.80987641 37.84211371 65.21665545 49.79367353 73 63 C73.99 64.485 73.99 64.485 75 66 C74.505 67.485 74.505 67.485 74 69 C73.443125 68.10539062 72.88625 67.21078125 72.3125 66.2890625 C67.61576012 58.81659914 62.74763736 51.72048648 57 45 C56.33742188 44.21496094 55.67484375 43.42992187 54.9921875 42.62109375 C45.18734461 31.35095146 34.57722001 21.67320051 21.73339844 14.03515625 C19.96803527 12.9809112 18.22090031 11.90113726 16.4765625 10.8125 C11.04779597 7.42834382 5.58639955 4.11799045 0 1 C0 0.67 0 0.34 0 0 Z " fill="#F2F1F7" transform="translate(313,103)"/>
<path d="M0 0 C1 3 1 3 0.27490234 4.98950195 C-0.11745605 5.73159912 -0.50981445 6.47369629 -0.9140625 7.23828125 C-1.34589844 8.05876953 -1.77773438 8.87925781 -2.22265625 9.72460938 C-2.68542969 10.57861328 -3.14820313 11.43261719 -3.625 12.3125 C-4.06457031 13.15490234 -4.50414062 13.99730469 -4.95703125 14.86523438 C-7.56788966 19.76155095 -10.36840868 23.8194472 -14 28 C-14.47695313 28.804375 -14.95390625 29.60875 -15.4453125 30.4375 C-17.57174361 33.94237138 -20.18998594 36.91256368 -22.875 40 C-23.39191406 40.60328125 -23.90882813 41.2065625 -24.44140625 41.828125 C-38.34835817 57.94197357 -57.67086772 74.81808647 -78 82 C-78.99 81.67 -79.98 81.34 -81 81 C-79.90300781 80.38511719 -78.80601562 79.77023437 -77.67578125 79.13671875 C-76.22133265 78.32035083 -74.76690677 77.50394244 -73.3125 76.6875 C-72.59126953 76.28337891 -71.87003906 75.87925781 -71.12695312 75.46289062 C-63.30217583 71.10304114 -63.30217583 71.10304114 -56 65.9375 C-53.35565502 63.84041184 -50.70148724 61.77998218 -47.984375 59.77734375 C-35.81197979 50.78901339 -25.40486744 40.6509855 -17 28 C-16.55495117 27.34781494 -16.10990234 26.69562988 -15.65136719 26.02368164 C-11.88441473 20.46663334 -8.45306799 14.76614082 -5.125 8.9375 C-4.62742187 8.07189453 -4.12984375 7.20628906 -3.6171875 6.31445312 C-2.40868979 4.21120231 -1.20301056 2.10639249 0 0 Z " fill="#F4F3FB" transform="translate(393,308)"/>
<path d="M0 0 C0.99 0.495 0.99 0.495 2 1 C1.20078125 1.4846875 0.4015625 1.969375 -0.421875 2.46875 C-12.05073122 9.56617399 -23.01215994 16.65544455 -33 26 C-34.37010016 27.19314995 -35.74482075 28.3810236 -37.125 29.5625 C-43.18996429 34.86627444 -48.73159384 40.11547394 -53 47 C-54.11977206 48.58703497 -55.24535674 50.16997609 -56.375 51.75 C-59.3705537 55.99905793 -62.0619709 60.35844907 -64.640625 64.87109375 C-65.92506427 66.88264375 -67.24527447 68.39494223 -69 70 C-67.14792258 60.08318039 -58.98443224 50.82934391 -53 43 C-52.36191406 42.15566406 -51.72382812 41.31132812 -51.06640625 40.44140625 C-37.94339623 23.5161559 -19.73232 8.63071492 0 0 Z " fill="#E8E7ED" transform="translate(179,105)"/>
<path d="M0 0 C0.0825 0.78375 0.165 1.5675 0.25 2.375 C0.4975 3.24125 0.745 4.1075 1 5 C1.66 5.33 2.32 5.66 3 6 C3.66 6.33 4.32 6.66 5 7 C5.625 9.5625 5.625 9.5625 6 12 C6.66 12.33 7.32 12.66 8 13 C7.34 13 6.68 13 6 13 C6.33 14.0725 6.66 15.145 7 16.25 C8 20 8 20 8 24 C8.66 24 9.32 24 10 24 C10.33 23.34 10.66 22.68 11 22 C11.66 22 12.32 22 13 22 C13 22.99 13 23.98 13 25 C11.68 25.33 10.36 25.66 9 26 C8.67 27.65 8.34 29.3 8 31 C9.65 31 11.3 31 13 31 C13 32.65 13 34.3 13 36 C11.02 36.495 11.02 36.495 9 37 C8.505 39.475 8.505 39.475 8 42 C6.515 42.495 6.515 42.495 5 43 C4.08902006 44.76855511 4.08902006 44.76855511 3.5 46.875 C2.52098394 50.03349229 1.49084897 51.79975007 -1 54 C-1.66 53.67 -2.32 53.34 -3 53 C-2.66226562 52.40832031 -2.32453125 51.81664062 -1.9765625 51.20703125 C4.52038142 39.69654968 7.37625892 27.93121005 3.875 14.75 C2.12851597 9.60335625 -0.7674808 5.33094805 -4 1 C-2 0 -2 0 0 0 Z " fill="#765BB1" transform="translate(319,243)"/>
<path d="M0 0 C1.4540625 0.0309375 1.4540625 0.0309375 2.9375 0.0625 C2.9375 0.3925 2.9375 0.7225 2.9375 1.0625 C1.2875 1.0625 -0.3625 1.0625 -2.0625 1.0625 C-2.0625 10.6325 -2.0625 20.2025 -2.0625 30.0625 C-14.2725 30.0625 -26.4825 30.0625 -39.0625 30.0625 C-39.0625 36.0025 -39.0625 41.9425 -39.0625 48.0625 C-39.3925 48.0625 -39.7225 48.0625 -40.0625 48.0625 C-40.0625 43.4425 -40.0625 38.8225 -40.0625 34.0625 C-40.7225 33.7325 -41.3825 33.4025 -42.0625 33.0625 C-40.69266497 29.90134224 -40.0734362 29.0697908 -37.0625 27.0625 C-34.58488096 26.96027307 -32.23754136 26.96984754 -29.76953125 27.0859375 C-28.71048836 27.12347641 -28.71048836 27.12347641 -27.63005066 27.16177368 C-25.37787051 27.24386259 -23.12658209 27.34049252 -20.875 27.4375 C-19.34704148 27.49575109 -17.81904651 27.55305414 -16.29101562 27.609375 C-12.54766539 27.7494243 -8.80504912 27.90251606 -5.0625 28.0625 C-5.02491577 26.84348999 -5.02491577 26.84348999 -4.98657227 25.59985352 C-4.87100882 21.94139248 -4.74810416 18.28321472 -4.625 14.625 C-4.58568359 13.34560547 -4.54636719 12.06621094 -4.50585938 10.74804688 C-4.44301758 8.92563477 -4.44301758 8.92563477 -4.37890625 7.06640625 C-4.34224854 5.94049072 -4.30559082 4.8145752 -4.26782227 3.65454102 C-3.97076654 -0.09556672 -3.832081 0.07820573 0 0 Z " fill="#7059A7" transform="translate(219.0625,140.9375)"/>
<path d="M0 0 C2.64 1.32 5.28 2.64 8 4 C4 5 4 5 1 4 C-1.05297843 3.90523615 -3.10889918 3.8692776 -5.1640625 3.8671875 C-6.36804688 3.86589844 -7.57203125 3.86460937 -8.8125 3.86328125 C-10.070625 3.86714844 -11.32875 3.87101563 -12.625 3.875 C-13.89085937 3.87113281 -15.15671875 3.86726562 -16.4609375 3.86328125 C-17.66234375 3.86457031 -18.86375 3.86585938 -20.1015625 3.8671875 C-21.76179443 3.86887939 -21.76179443 3.86887939 -23.45556641 3.87060547 C-25.9351462 3.71171906 -25.9351462 3.71171906 -27 5 C-27.1487538 7.78261614 -27.23555092 10.5432001 -27.28125 13.328125 C-27.29934219 14.18118729 -27.31743439 15.03424957 -27.33607483 15.91316223 C-27.374649 17.74342841 -27.41115941 19.573739 -27.4458313 21.40408325 C-27.5353432 26.10686201 -27.64020356 30.80928413 -27.74609375 35.51171875 C-27.776782 36.8880674 -27.776782 36.8880674 -27.80809021 38.29222107 C-28.02944059 47.87112216 -28.44291081 57.43466004 -29 67 C-31.12201479 63.55263125 -31.1746947 61.03291079 -30.9765625 57.03125 C-30.92483887 55.83274414 -30.87311523 54.63423828 -30.81982422 53.39941406 C-30.75553223 52.11260742 -30.69124023 50.82580078 -30.625 49.5 C-30.50821044 46.79715586 -30.40152527 44.09396388 -30.296875 41.390625 C-30.2559523 40.35551788 -30.2559523 40.35551788 -30.21420288 39.29949951 C-29.93645639 31.94919411 -29.87788673 24.60538589 -29.875 17.25 C-29.87064941 16.04923828 -29.86629883 14.84847656 -29.86181641 13.61132812 C-29.8644751 11.95520508 -29.8644751 11.95520508 -29.8671875 10.265625 C-29.86831543 9.29399414 -29.86944336 8.32236328 -29.87060547 7.32128906 C-29.84745455 4.97447419 -29.84745455 4.97447419 -31 3 C-27.1906748 1.22938862 -24.26450987 0.77038087 -20.078125 0.83984375 C-18.41716797 0.8562793 -18.41716797 0.8562793 -16.72265625 0.87304688 C-15.00369141 0.90495117 -15.00369141 0.90495117 -13.25 0.9375 C-10.96360218 0.9717579 -8.67713831 1.00193805 -6.390625 1.02734375 C-4.8751709 1.05429321 -4.8751709 1.05429321 -3.32910156 1.08178711 C-1.03909936 1.26638477 -1.03909936 1.26638477 0 0 Z " fill="#7A5BBD" transform="translate(170,209)"/>
<path d="M0 0 C0.33 0 0.66 0 1 0 C1 3.3 1 6.6 1 10 C0.34 10 -0.32 10 -1 10 C-1.05534912 10.72590332 -1.11069824 11.45180664 -1.16772461 12.19970703 C-1.42156553 15.5083557 -1.67949446 18.81667359 -1.9375 22.125 C-2.02451172 23.26710937 -2.11152344 24.40921875 -2.20117188 25.5859375 C-2.28818359 26.69453125 -2.37519531 27.803125 -2.46484375 28.9453125 C-2.543396 29.96125488 -2.62194824 30.97719727 -2.70288086 32.02392578 C-3 35 -3 35 -3.59594727 38.19091797 C-4.22461235 41.07295133 -4.22461235 41.07295133 -3 44 C-2.95524382 45.49933215 -2.9610521 47.00050573 -3 48.5 C-3.35651223 58.01065679 -3.35651223 58.01065679 -1 67 C-0.86584528 69.6723621 -0.95681459 72.32250488 -1 75 C-4.19109123 69.57915046 -4.24838594 63.12598713 -5 57 C-5.11472656 56.09121094 -5.22945313 55.18242187 -5.34765625 54.24609375 C-7.43171056 35.959251 -5.06534084 17.60574779 0 0 Z " fill="#8168B4" transform="translate(114,205)"/>
<path d="M0 0 C6.25699877 0.7445399 10.26831449 7.36315862 14 12 C17.19158277 16.20292827 20.10196712 20.59157429 23 25 C24.06541016 26.56621094 24.06541016 26.56621094 25.15234375 28.1640625 C25.80332031 29.14117187 26.45429688 30.11828125 27.125 31.125 C27.70507812 31.99382812 28.28515625 32.86265625 28.8828125 33.7578125 C30 36 30 36 29 39 C28.443125 38.10539062 27.88625 37.21078125 27.3125 36.2890625 C19.83997814 24.40035943 11.50377148 13.01353188 1.23828125 3.33984375 C0 2 0 2 0 0 Z " fill="#ECECF1" transform="translate(358,133)"/>
<path d="M0 0 C14 0 14 0 19 3 C20.375 5 20.375 5 21 7 C20.67 7.99 20.34 8.98 20 10 C19.38125 9.030625 18.7625 8.06125 18.125 7.0625 C16.34321154 3.97164638 16.34321154 3.97164638 14 3 C9.71 2.34 5.42 1.68 1 1 C1 13.21 1 25.42 1 38 C9.07095662 37.42861689 9.07095662 37.42861689 17 36 C16.01 36.99 15.02 37.98 14 39 C9.38 39 4.76 39 0 39 C0 26.13 0 13.26 0 0 Z " fill="#745CA7" transform="translate(156,224)"/>
<path d="M0 0 C4.55806739 4.32432034 6.14627516 6.93057841 6.4375 13.1875 C6.38182679 18.44861841 5.21987477 21.38481246 1.7890625 25.3359375 C-0.99169975 27.92241069 -3.50260862 29.48226412 -7 31 C-7.99 30.67 -8.98 30.34 -10 30 C-9.34 30 -8.68 30 -8 30 C-7.773125 29.360625 -7.54625 28.72125 -7.3125 28.0625 C-6 26 -6 26 -3.5 25.375 C-2.675 25.25125 -1.85 25.1275 -1 25 C1.25829293 23.17490136 1.25829293 23.17490136 1.1953125 20.50390625 C1.17210937 19.53324219 1.14890625 18.56257813 1.125 17.5625 C1.10695313 16.59441406 1.08890625 15.62632812 1.0703125 14.62890625 C1.04710937 13.76136719 1.02390625 12.89382813 1 12 C1 9 1 9 1.625 6.5625 C2.05728067 3.60858207 1.56217417 2.48110015 0 0 Z " fill="#7B5BBC" transform="translate(282,257)"/>
<path d="M0 0 C2 2 2 2 2.22705078 4.70556641 C2.21657715 5.82624512 2.20610352 6.94692383 2.1953125 8.1015625 C2.18886719 9.31328125 2.18242187 10.525 2.17578125 11.7734375 C2.15902344 13.04445312 2.14226562 14.31546875 2.125 15.625 C2.11597656 16.90375 2.10695312 18.1825 2.09765625 19.5 C2.07402303 22.66685167 2.04107629 25.83333424 2 29 C-0.47923801 29.02685095 -2.9581884 29.04676547 -5.4375 29.0625 C-6.14455078 29.07087891 -6.85160156 29.07925781 -7.58007812 29.08789062 C-9.38693559 29.09653588 -11.19387603 29.05220011 -13 29 C-14 28 -14 28 -14.11352539 25.40795898 C-14.10828857 24.28204346 -14.10305176 23.15612793 -14.09765625 21.99609375 C-14.09443359 20.78115234 -14.09121094 19.56621094 -14.08789062 18.31445312 C-14.07951172 17.03505859 -14.07113281 15.75566406 -14.0625 14.4375 C-14.05798828 13.15423828 -14.05347656 11.87097656 -14.04882812 10.54882812 C-14.03699545 7.36583978 -14.02051068 4.18294238 -14 1 C-13.01 1.495 -13.01 1.495 -12 2 C-12 9.92 -12 17.84 -12 26 C-8.04 26 -4.08 26 0 26 C0 17.42 0 8.84 0 0 Z " fill="#7057A9" transform="translate(250,142)"/>
<path d="M0 0 C0.99 0.66 1.98 1.32 3 2 C2.00097656 2.06058594 1.00195312 2.12117188 -0.02734375 2.18359375 C-1.31769531 2.26738281 -2.60804688 2.35117187 -3.9375 2.4375 C-5.22527344 2.51871094 -6.51304687 2.59992188 -7.83984375 2.68359375 C-10.86023957 2.64919188 -10.86023957 2.64919188 -12 4 C-10.02 4.99 -8.04 5.98 -6 7 C-6 7.66 -6 8.32 -6 9 C-3.36 9.33 -0.72 9.66 2 10 C2 10.33 2 10.66 2 11 C-4.27 11 -10.54 11 -17 11 C-15 4 -15 4 -13 1.5625 C-8.7476494 -0.65226594 -4.71347948 -0.68704955 0 0 Z " fill="#795CB5" transform="translate(360,257)"/>
<path d="M0 0 C5.94 0 11.88 0 18 0 C16.68 1.32 15.36 2.64 14 4 C14.99 4.33 15.98 4.66 17 5 C11.39 5 5.78 5 0 5 C0 3.35 0 1.7 0 0 Z " fill="#7254B2" transform="translate(342,274)"/>
<path d="M0 0 C8.82951157 -0.19891265 17.5290983 -0.13754571 26.3125 0.875 C27.02269287 0.95347168 27.73288574 1.03194336 28.46459961 1.11279297 C32.00193921 1.55746758 34.93835767 2.12681009 38 4 C36.56465159 4.2226746 35.12654475 4.42761906 33.6875 4.625 C32.88699219 4.74101562 32.08648437 4.85703125 31.26171875 4.9765625 C29 5 29 5 26 3 C23.9507906 2.54860541 23.9507906 2.54860541 21.8125 2.375 C20.554375 2.25125 19.29625 2.1275 18 2 C17.67 2.99 17.34 3.98 17 5 C16.01 5.33 15.02 5.66 14 6 C14 5.01 14 4.02 14 3 C7.07 2.505 7.07 2.505 0 2 C0 1.34 0 0.68 0 0 Z " fill="#876FBA" transform="translate(237,249)"/>
<path d="M0 0 C-0.875 6.875 -0.875 6.875 -2 8 C0.35380297 11.92300495 2.64464931 12.83857315 7 14 C6.01 15.485 6.01 15.485 5 17 C4.50371094 16.67386719 4.00742187 16.34773438 3.49609375 16.01171875 C-0.88567579 13.19308521 -5.15590098 10.91745586 -10 9 C-3 0 -3 0 0 0 Z " fill="#775FB2" transform="translate(309,227)"/>
<path d="M0 0 C0.66 0.33 1.32 0.66 2 1 C-4.75 5 -4.75 5 -7 5 C-7.061875 5.763125 -7.12375 6.52625 -7.1875 7.3125 C-8 10 -8 10 -10.375 11.875 C-13 13 -13 13 -16 12 C-16 11.34 -16 10.68 -16 10 C-16.99 10.33 -17.98 10.66 -19 11 C-19 10.34 -19 9.68 -19 9 C-15.88112823 7.46635461 -12.75402378 5.95031107 -9.625 4.4375 C-8.73554688 3.99986328 -7.84609375 3.56222656 -6.9296875 3.11132812 C-6.07890625 2.70205078 -5.228125 2.29277344 -4.3515625 1.87109375 C-3.56604004 1.48880615 -2.78051758 1.10651855 -1.97119141 0.71264648 C-1.32069824 0.47747314 -0.67020508 0.2422998 0 0 Z " fill="#8164C0" transform="translate(198,114)"/>
<path d="M0 0 C0.66 0.66 1.32 1.32 2 2 C1.01 2.33 0.02 2.66 -1 3 C-0.67 3.99 -0.34 4.98 0 6 C-2 8 -2 8 -5.125 8.125 C-6.07375 8.08375 -7.0225 8.0425 -8 8 C-8 8.99 -8 9.98 -8 11 C-10.35438733 12.42944945 -11.48032433 13.08661261 -14.25 12.625 C-14.8275 12.41875 -15.405 12.2125 -16 12 C-16 12.66 -16 13.32 -16 14 C-18.97 13.505 -18.97 13.505 -22 13 C-19.57531826 11.77553572 -17.13772487 10.58716544 -14.6875 9.4140625 C-13.45824116 8.81789834 -12.2290768 8.22153937 -11 7.625 C-10.38382812 7.33367187 -9.76765625 7.04234375 -9.1328125 6.7421875 C-5.45439902 4.94244871 -2.70984012 3.07566854 0 0 Z " fill="#7C5DB7" transform="translate(315,297)"/>
<path d="M0 0 C1.80670166 0.07855225 1.80670166 0.07855225 3.64990234 0.15869141 C4.95185547 0.21025391 6.25380859 0.26181641 7.59521484 0.31494141 C8.97543363 0.37982349 10.35564187 0.44493057 11.73583984 0.51025391 C13.12382134 0.56849089 14.51184234 0.62579424 15.89990234 0.68212891 C19.3040491 0.82396835 22.70749831 0.97541626 26.11083984 1.13525391 C26.11083984 1.46525391 26.11083984 1.79525391 26.11083984 2.13525391 C16.54083984 2.46525391 6.97083984 2.79525391 -2.88916016 3.13525391 C-3.21916016 9.07525391 -3.54916016 15.01525391 -3.88916016 21.13525391 C-4.21916016 21.13525391 -4.54916016 21.13525391 -4.88916016 21.13525391 C-4.88916016 16.51525391 -4.88916016 11.89525391 -4.88916016 7.13525391 C-5.54916016 6.80525391 -6.20916016 6.47525391 -6.88916016 6.13525391 C-4.11596167 0.19268572 -4.11596167 0.19268572 0 0 Z " fill="#765BB5" transform="translate(183.88916015625,167.86474609375)"/>
<path d="M0 0 C0.33 0 0.66 0 1 0 C0.85991329 3.5210863 0.71189018 7.04179712 0.5625 10.5625 C0.52318359 11.55314453 0.48386719 12.54378906 0.44335938 13.56445312 C0.21827654 18.77598637 -0.14105239 23.85353238 -1 29 C-1.66 28.67 -2.32 28.34 -3 28 C-2.8595017 25.2079699 -2.71284617 22.41650204 -2.5625 19.625 C-2.52318359 18.8309375 -2.48386719 18.036875 -2.44335938 17.21875 C-2.11328125 11.2265625 -2.11328125 11.2265625 -1 9 C-1.66 8.67 -2.32 8.34 -3 8 C-2.67 7.01 -2.34 6.02 -2 5 C-1.34 5 -0.68 5 0 5 C0 3.35 0 1.7 0 0 Z " fill="#7A5FAF" transform="translate(391,241)"/>
<path d="M0 0 C4.07742314 2.09381188 6.00465015 3.87089452 8 8 C8.36328125 11.19140625 8.36328125 11.19140625 8.3125 14.5625 C8.30863281 15.67753906 8.30476563 16.79257813 8.30078125 17.94140625 C8.0151431 20.8460124 7.5090683 22.54100026 6 25 C5.34 25 4.68 25 4 25 C4.32742188 24.29488281 4.65484375 23.58976562 4.9921875 22.86328125 C6.08400722 19.76132833 6.20385396 17.45993947 6.125 14.1875 C6.10695313 13.21167969 6.08890625 12.23585937 6.0703125 11.23046875 C6.04710937 10.49441406 6.02390625 9.75835937 6 9 C5.01 8.67 4.02 8.34 3 8 C1.4161808 5.44829129 0.62655832 2.92393881 0 0 Z " fill="#755CAE" transform="translate(272,197)"/>
<path d="M0 0 C2.97 0.495 2.97 0.495 6 1 C2.67513619 3.74054368 -0.83057886 5.42376049 -4.75 7.1875 C-5.92046875 7.71730469 -7.0909375 8.24710937 -8.296875 8.79296875 C-9.18890625 9.19128906 -10.0809375 9.58960938 -11 10 C-11.33 9.01 -11.66 8.02 -12 7 C-10.865625 6.71125 -9.73125 6.4225 -8.5625 6.125 C-7.386875 5.75375 -6.21125 5.3825 -5 5 C-4.67 4.34 -4.34 3.68 -4 3 C-3.01 3.33 -2.02 3.66 -1 4 C-0.67 2.68 -0.34 1.36 0 0 Z " fill="#8469B7" transform="translate(313,368)"/>
<path d="M0 0 C0.64910154 1.58199631 1.29414694 3.16565724 1.9375 4.75 C2.29714844 5.63171875 2.65679687 6.5134375 3.02734375 7.421875 C3.85356576 9.61186104 4.49369943 11.71898271 5 14 C4.01 13.34 3.02 12.68 2 12 C2 11.01 2 10.02 2 9 C1.34 9 0.68 9 0 9 C-1.35432675 7.68799596 -2.68733482 6.35368596 -4 5 C-4.66 4.67 -5.32 4.34 -6 4 C-5.67 3.01 -5.34 2.02 -5 1 C-2 0 -2 0 0 0 Z " fill="#7B59C1" transform="translate(332,285)"/>
<path d="M0 0 C2.64 1.32 5.28 2.64 8 4 C4 5 4 5 1 4 C-0.91765594 3.85060226 -2.83946522 3.75189717 -4.76171875 3.68359375 C-6.43911133 3.62075195 -6.43911133 3.62075195 -8.15039062 3.55664062 C-9.31763672 3.51732422 -10.48488281 3.47800781 -11.6875 3.4375 C-13.45577148 3.37272461 -13.45577148 3.37272461 -15.25976562 3.30664062 C-18.17305883 3.20048824 -21.08643757 3.09843758 -24 3 C-24 2.67 -24 2.34 -24 2 C-23.30849854 1.97494385 -22.61699707 1.9498877 -21.90454102 1.92407227 C-18.79032134 1.80847839 -15.67643211 1.68558758 -12.5625 1.5625 C-10.92958008 1.50352539 -10.92958008 1.50352539 -9.26367188 1.44335938 C-8.22919922 1.40146484 -7.19472656 1.35957031 -6.12890625 1.31640625 C-5.17056885 1.27974854 -4.21223145 1.24309082 -3.22485352 1.20532227 C-1.02861075 1.24165576 -1.02861075 1.24165576 0 0 Z " fill="#6F55A9" transform="translate(170,209)"/>
<path d="M0 0 C0.99 0.33 1.98 0.66 3 1 C1.71481447 3.31632275 0.42228734 5.62796942 -0.875 7.9375 C-1.23980469 8.59685547 -1.60460937 9.25621094 -1.98046875 9.93554688 C-4.7734375 14.88671875 -4.7734375 14.88671875 -7 16 C-7 15.01 -7 14.02 -7 13 C-6.34 13 -5.68 13 -5 13 C-5.33 11.68 -5.66 10.36 -6 9 C-4.68 8.34 -3.36 7.68 -2 7 C-2 6.34 -2 5.68 -2 5 C-2.66 5 -3.32 5 -4 5 C-3.67 4.01 -3.34 3.02 -3 2 C-2.01 2.33 -1.02 2.66 0 3 C0 2.01 0 1.02 0 0 Z " fill="#8164B8" transform="translate(375,307)"/>
<path d="M0 0 C0.99 0 1.98 0 3 0 C4.69630313 1.96876633 6.19536118 3.88673162 7.6875 6 C8.10322266 6.57234375 8.51894531 7.1446875 8.94726562 7.734375 C9.97356861 9.14996532 10.98793399 10.57419631 12 12 C11.67 12.66 11.34 13.32 11 14 C9.84481082 13.09515208 8.70114594 12.1755794 7.5625 11.25 C6.92441406 10.73953125 6.28632813 10.2290625 5.62890625 9.703125 C3.78742523 7.77773956 3.50574762 6.56561553 3 4 C1.50014391 2.33289654 1.50014391 2.33289654 0 1 C0 0.67 0 0.34 0 0 Z " fill="#7B62B5" transform="translate(356,155)"/>
<path d="M0 0 C3.63046346 1.56194358 6.21193205 3.78965167 9.125 6.4375 C9.99382812 7.21996094 10.86265625 8.00242188 11.7578125 8.80859375 C14 11 14 11 16 14 C15.01 14 14.02 14 13 14 C13 13.34 13 12.68 13 12 C12.34 12 11.68 12 11 12 C8.65130253 10.02709413 7.99897713 8.99693138 7 6 C4.03 5.505 4.03 5.505 1 5 C0.67 3.35 0.34 1.7 0 0 Z " fill="#7964AD" transform="translate(335,134)"/>
<path d="M0 0 C0 0.66 0 1.32 0 2 C2.31 2 4.62 2 7 2 C7.33 2.99 7.66 3.98 8 5 C5.74971671 4.85860519 3.49977794 4.71171997 1.25 4.5625 C-0.62945312 4.44068359 -0.62945312 4.44068359 -2.546875 4.31640625 C-5.18317553 4.07484478 -7.48037294 3.75716066 -10 3 C-3.375 0 -3.375 0 0 0 Z " fill="#795DB3" transform="translate(356,244)"/>
<path d="M0 0 C7.48252838 1.37179687 14.05604954 3.92163279 21 7 C17.3050894 8.23163687 16.30221924 7.59151962 12.75 6.1875 C8.52849305 4.56729348 4.36678051 3.1644748 0 2 C0 1.34 0 0.68 0 0 Z " fill="#8872B5" transform="translate(292,112)"/>
<path d="M0 0 C1.65 0.33 3.3 0.66 5 1 C4.67 2.98 4.34 4.96 4 7 C4.99 7.66 5.98 8.32 7 9 C7 9.66 7 10.32 7 11 C5.25 10.875 5.25 10.875 3 10 C0.6875 7.1875 0.6875 7.1875 -1 4 C-0.75 1.625 -0.75 1.625 0 0 Z " fill="#755AB5" transform="translate(344,284)"/>
<path d="M0 0 C5.80477223 5.50709161 5.80477223 5.50709161 6.203125 10.59375 C6.21859375 11.5528125 6.2340625 12.511875 6.25 13.5 C6.27578125 14.4590625 6.3015625 15.418125 6.328125 16.40625 C5.95389709 19.36443253 5.30935919 20.20113073 3 22 C2.957279 20.33388095 2.95936168 18.66617115 3 17 C3.33 16.67 3.66 16.34 4 16 C4.41515159 10.70681728 3.60597693 7.58651939 1 3 C0.67 2.01 0.34 1.02 0 0 Z " fill="#765DAA" transform="translate(282,257)"/>
<path d="M0 0 C0.66 0.33 1.32 0.66 2 1 C-1.07517084 11.55808656 -1.07517084 11.55808656 -3 16 C-5 14 -5 14 -5.3125 11.5 C-5.209375 10.675 -5.10625 9.85 -5 9 C-4.01 8.34 -3.02 7.68 -2 7 C-0.7811879 3.44327821 -0.7811879 3.44327821 0 0 Z " fill="#8063B6" transform="translate(382,290)"/>
<path d="M0 0 C0.33 0.66 0.66 1.32 1 2 C0.236875 2.556875 -0.52625 3.11375 -1.3125 3.6875 C-3.97735248 5.98051259 -5.22805206 8.01990573 -7 11 C-7.99 11.33 -8.98 11.66 -10 12 C-10 12.66 -10 13.32 -10 14 C-10.99 13.67 -11.98 13.34 -13 13 C-11.21188257 11.01752198 -9.41974481 9.03896272 -7.625 7.0625 C-7.11710938 6.49853516 -6.60921875 5.93457031 -6.0859375 5.35351562 C-2.2265625 1.11328125 -2.2265625 1.11328125 0 0 Z " fill="#7F65B5" transform="translate(153,143)"/>
<path d="M0 0 C0.66 0.33 1.32 0.66 2 1 C-0.05952358 2.29662538 -2.12237057 3.58735727 -4.1875 4.875 C-4.76564453 5.23980469 -5.34378906 5.60460937 -5.93945312 5.98046875 C-9.20278033 8.0085252 -12.38059362 9.70492051 -16 11 C-14.69651992 7.08955976 -13.28330719 6.79969948 -9.6875 4.9375 C-8.72199219 4.43089844 -7.75648438 3.92429687 -6.76171875 3.40234375 C-5.85035156 2.93957031 -4.93898437 2.47679688 -4 2 C-3.26394531 1.58878906 -2.52789062 1.17757812 -1.76953125 0.75390625 C-1.18558594 0.50511719 -0.60164062 0.25632812 0 0 Z " fill="#DDDDEB" transform="translate(179,105)"/>
<path d="M0 0 C0.66 0 1.32 0 2 0 C3.15239083 1.15239083 4.30073555 2.3091793 5.42578125 3.48828125 C8.36076693 6.30674144 11.70612343 8.62154322 15 11 C14.67 11.66 14.34 12.32 14 13 C11.8442177 11.59679261 9.70121902 10.17879868 7.5625 8.75 C6.95083984 8.35425781 6.33917969 7.95851563 5.70898438 7.55078125 C1.20370642 4.51407456 1.20370642 4.51407456 0.08984375 1.703125 C0.06019531 1.14109375 0.03054687 0.5790625 0 0 Z " fill="#775FB1" transform="translate(162,354)"/>
<path d="M0 0 C1.32 0 2.64 0 4 0 C4.061875 0.5775 4.12375 1.155 4.1875 1.75 C5.3176876 4.87975028 7.41017692 5.96513901 10 8 C11.875 10.625 11.875 10.625 13 13 C12.67 13.66 12.34 14.32 12 15 C10.55726615 13.44233138 9.12103292 11.87864043 7.6875 10.3125 C6.88699219 9.44238281 6.08648437 8.57226562 5.26171875 7.67578125 C3.18451663 5.21829688 1.56168424 2.80496684 0 0 Z " fill="#7E69B5" transform="translate(137,331)"/>
<path d="M0 0 C13.81776765 1.74259681 13.81776765 1.74259681 19 5 C14.83326479 6.79341438 11.25336659 5.01173384 7.25 3.5625 C6.20392578 3.19801758 6.20392578 3.19801758 5.13671875 2.82617188 C3.42114902 2.22689752 1.71010285 1.61470115 0 1 C0 0.67 0 0.34 0 0 Z " fill="#836DB7" transform="translate(201,378)"/>
<path d="M0 0 C2.875 -0.125 2.875 -0.125 6 0 C6.66 0.66 7.32 1.32 8 2 C7.67 2.66 7.34 3.32 7 4 C8.4540625 4.4021875 8.4540625 4.4021875 9.9375 4.8125 C10.948125 5.204375 11.95875 5.59625 13 6 C13.33 6.99 13.66 7.98 14 9 C13.01 9 12.02 9 11 9 C11 8.34 11 7.68 11 7 C10.195625 6.731875 9.39125 6.46375 8.5625 6.1875 C7.716875 5.795625 6.87125 5.40375 6 5 C5.67 4.01 5.34 3.02 5 2 C3.35 1.67 1.7 1.34 0 1 C0 0.67 0 0.34 0 0 Z " fill="#8166BA" transform="translate(173,211)"/>
<path d="M0 0 C1.89575251 -0.02721176 3.79161979 -0.04649136 5.6875 -0.0625 C6.74324219 -0.07410156 7.79898438 -0.08570312 8.88671875 -0.09765625 C11.72410262 -0.00865425 14.2438919 0.35060162 17 1 C13.33460332 3.37706418 10.50943165 3.05094317 6.25 2.625 C5.07953125 2.51414062 3.9090625 2.40328125 2.703125 2.2890625 C1.81109375 2.19367188 0.9190625 2.09828125 0 2 C0 1.34 0 0.68 0 0 Z " fill="#785FAF" transform="translate(242,105)"/>
<path d="M0 0 C0.99 0.33 1.98 0.66 3 1 C-0.3 4.3 -3.6 7.6 -7 11 C-7.33 10.01 -7.66 9.02 -8 8 C-7.01 7.67 -6.02 7.34 -5 7 C-3.78130071 4.49552484 -3.78130071 4.49552484 -3 2 C-2.01 2 -1.02 2 0 2 C0 1.34 0 0.68 0 0 Z " fill="#785DB0" transform="translate(348,344)"/>
<path d="M0 0 C2 1 2 1 2.81640625 3.328125 C3.06261719 4.29234375 3.30882813 5.2565625 3.5625 6.25 C3.81128906 7.20390625 4.06007813 8.1578125 4.31640625 9.140625 C4.94062786 11.75165481 5.49485691 14.36363415 6 17 C3.28659072 13.79677758 2.06935064 10.73725031 0.8125 6.75 C0.46832031 5.67234375 0.12414062 4.5946875 -0.23046875 3.484375 C-0.48441406 2.66453125 -0.73835938 1.8446875 -1 1 C-0.67 0.67 -0.34 0.34 0 0 Z " fill="#856DB8" transform="translate(115,286)"/>
<path d="M0 0 C-0.66 0 -1.32 0 -2 0 C-2 0.66 -2 1.32 -2 2 C-2.60328125 2.04898438 -3.2065625 2.09796875 -3.828125 2.1484375 C-5.02695313 2.26058594 -5.02695313 2.26058594 -6.25 2.375 C-7.43335938 2.47941406 -7.43335938 2.47941406 -8.640625 2.5859375 C-11.09537697 3.01673834 -12.79465101 3.87909948 -15 5 C-15.99 5 -16.98 5 -18 5 C-18 4.34 -18 3.68 -18 3 C-15.75376301 2.30030318 -13.50283586 1.61564957 -11.25 0.9375 C-9.99703125 0.55464844 -8.7440625 0.17179687 -7.453125 -0.22265625 C-4.3261992 -0.92656828 -2.90533954 -1.16653785 0 0 Z " fill="#856EBA" transform="translate(221,109)"/>
<path d="M0 0 C0.99 0.33 1.98 0.66 3 1 C3 1.66 3 2.32 3 3 C3.639375 3.185625 4.27875 3.37125 4.9375 3.5625 C7 5 7 5 7.75 8.625 C7.8325 9.73875 7.915 10.8525 8 12 C4.02502456 8.59287819 2.13206212 4.67239145 0 0 Z " fill="#8570BC" transform="translate(127,316)"/>
<path d="M0 0 C0.721875 0.144375 1.44375 0.28875 2.1875 0.4375 C3.5796875 0.7159375 3.5796875 0.7159375 5 1 C6.66666667 1.33333333 8.33333333 1.66666667 10 2 C8.375 3.5625 8.375 3.5625 6 5 C2.75 4.6875 2.75 4.6875 0 4 C0 2.68 0 1.36 0 0 Z " fill="#7A58B9" transform="translate(354,290)"/>
<path d="M0 0 C1 2 1 2 0.546875 3.83984375 C0.28390625 4.53207031 0.0209375 5.22429687 -0.25 5.9375 C-0.62898438 6.97197266 -0.62898438 6.97197266 -1.015625 8.02734375 C-2.06854763 10.13736727 -3.25352136 11.4350374 -5 13 C-5.66 12.67 -6.32 12.34 -7 12 C-6.20994338 10.56161448 -5.41788955 9.12432585 -4.625 7.6875 C-4.18414062 6.88699219 -3.74328125 6.08648437 -3.2890625 5.26171875 C-2.26486665 3.46472057 -1.14732862 1.72099292 0 0 Z " fill="#785FAC" transform="translate(323,284)"/>
<path d="M0 0 C0.99 0.33 1.98 0.66 3 1 C3.6875 3.0625 3.6875 3.0625 4 5 C3.34 5 2.68 5 2 5 C1.67 5.66 1.34 6.32 1 7 C0.34 7 -0.32 7 -1 7 C-1.66 7.66 -2.32 8.32 -3 9 C-2.44271087 5.65626525 -1.64826111 2.96687001 0 0 Z " fill="#8362BF" transform="translate(123,182)"/>
<path d="M0 0 C2.97 0 5.94 0 9 0 C9.33 0.99 9.66 1.98 10 3 C9.34 3 8.68 3 8 3 C7.67 3.66 7.34 4.32 7 5 C3.535 3.02 3.535 3.02 0 1 C0 0.67 0 0.34 0 0 Z " fill="#7A5EBB" transform="translate(260,106)"/>
<path d="M0 0 C1.32 0 2.64 0 4 0 C4 0.99 4 1.98 4 3 C5.32 3.66 6.64 4.32 8 5 C4.37673261 6.2077558 3.35853631 5.54311128 0 4 C0 2.68 0 1.36 0 0 Z " fill="#886DC4" transform="translate(190,371)"/>
<path d="M0 0 C1.49080078 0.02707031 1.49080078 0.02707031 3.01171875 0.0546875 C3.77097656 0.07789063 4.53023438 0.10109375 5.3125 0.125 C2.73441193 1.84372538 1.20825989 2.60718488 -1.6875 3.375 C-2.7084375 3.66117188 -2.7084375 3.66117188 -3.75 3.953125 C-5.6875 4.125 -5.6875 4.125 -8.6875 2.125 C-5.26655758 -0.15562828 -4.00562778 -0.09425007 0 0 Z " fill="#7D62B4" transform="translate(264.6875,226.875)"/>
<path d="M0 0 C0 0.33 0 0.66 0 1 C-3.63 1.66 -7.26 2.32 -11 3 C-11.33 2.01 -11.66 1.02 -12 0 C-3.42857143 -1.28571429 -3.42857143 -1.28571429 0 0 Z " fill="#8F7ABE" transform="translate(284,383)"/>
<path d="M0 0 C1.98 0 3.96 0 6 0 C5.67 1.32 5.34 2.64 5 4 C2.69 3.67 0.38 3.34 -2 3 C-1.34 2.67 -0.68 2.34 0 2 C0 1.34 0 0.68 0 0 Z " fill="#7B5CC4" transform="translate(326,274)"/>
<path d="M0 0 C0.66 1.32 1.32 2.64 2 4 C-0.39763185 6.39763185 -1.33273498 6.34280586 -4.625 6.625 C-5.44226563 6.69976562 -6.25953125 6.77453125 -7.1015625 6.8515625 C-7.72804687 6.90054687 -8.35453125 6.94953125 -9 7 C-8.1646875 6.38125 -8.1646875 6.38125 -7.3125 5.75 C-4.83804044 3.87743601 -2.4164771 1.94660656 0 0 Z " fill="#795CB1" transform="translate(185,266)"/>
<path d="M0 0 C5.94 0.99 5.94 0.99 12 2 C12 2.33 12 2.66 12 3 C10.56465159 3.2226746 9.12654475 3.42761906 7.6875 3.625 C6.88699219 3.74101562 6.08648437 3.85703125 5.26171875 3.9765625 C3 4 3 4 0 2 C0 1.34 0 0.68 0 0 Z " fill="#7E68B5" transform="translate(263,250)"/>
<path d="M0 0 C0.33 0 0.66 0 1 0 C1 3.3 1 6.6 1 10 C0.34 10 -0.32 10 -1 10 C-1.33 10.99 -1.66 11.98 -2 13 C-3.45047396 10.09905209 -2.45356803 8.44027404 -1.5625 5.375 C-1.27503906 4.37210938 -0.98757812 3.36921875 -0.69140625 2.3359375 C-0.46324219 1.56507813 -0.23507813 0.79421875 0 0 Z " fill="#8367B3" transform="translate(114,205)"/>
<path d="M0 0 C0.268125 0.639375 0.53625 1.27875 0.8125 1.9375 C1.88667752 4.33131686 1.88667752 4.33131686 5 5 C5.6875 7.0625 5.6875 7.0625 6 9 C3.96166576 7.7260411 1.96147874 6.38938077 0 5 C0 4.34 0 3.68 0 3 C-0.99 2.67 -1.98 2.34 -3 2 C-2.01 1.34 -1.02 0.68 0 0 Z " fill="#7960B0" transform="translate(302,178)"/>
<path d="M0 0 C2.31 0 4.62 0 7 0 C7.33 1.65 7.66 3.3 8 5 C7.01 4.67 6.02 4.34 5 4 C5 3.01 5 2.02 5 1 C4.01 1.99 3.02 2.98 2 4 C2 3.01 2 2.02 2 1 C1.34 0.67 0.68 0.34 0 0 Z " fill="#8564C5" transform="translate(175,364)"/>
<path d="M0 0 C0.66 0 1.32 0 2 0 C1.67 4.95 1.34 9.9 1 15 C0.67 15 0.34 15 0 15 C-0.19517554 13.06325815 -0.38087873 11.12555991 -0.5625 9.1875 C-0.66691406 8.10855469 -0.77132812 7.02960938 -0.87890625 5.91796875 C-1 3 -1 3 0 0 Z " fill="#785AB3" transform="translate(177,235)"/>
<path d="M0 0 C1.32 0 2.64 0 4 0 C4 0.99 4 1.98 4 3 C5.32 3.33 6.64 3.66 8 4 C4.7 4 1.4 4 -2 4 C-2 2 -2 2 0 0 Z " fill="#7857BC" transform="translate(240,226)"/>
<path d="M0 0 C0.99 0 1.98 0 3 0 C3.66 1.32 4.32 2.64 5 4 C4.01 4.99 3.02 5.98 2 7 C0 5 0 5 -0.125 2.375 C-0.08375 1.59125 -0.0425 0.8075 0 0 Z " fill="#785CB7" transform="translate(313,195)"/>
<path d="M0 0 C0.33 0.66 0.66 1.32 1 2 C-1.05233685 4.2477975 -2.00667261 5.0022242 -5 6 C-5.99 7.485 -5.99 7.485 -7 9 C-7.66 9 -8.32 9 -9 9 C-7.48328036 4.44984107 -3.83108947 2.49942736 0 0 Z " fill="#7C65B3" transform="translate(170,129)"/>
<path d="M0 0 C2.31 0.66 4.62 1.32 7 2 C6.1028125 2.1546875 6.1028125 2.1546875 5.1875 2.3125 C2.71756736 3.08876455 1.67748765 4.07088921 0 6 C-0.66 4.68 -1.32 3.36 -2 2 C-1.34 1.34 -0.68 0.68 0 0 Z " fill="#795BB6" transform="translate(265,194)"/>
<path d="M0 0 C0.99 0.66 1.98 1.32 3 2 C0.75 4.0625 0.75 4.0625 -2 6 C-4.3125 5.75 -4.3125 5.75 -6 5 C-4.02 3.35 -2.04 1.7 0 0 Z " fill="#EFEDF6" transform="translate(148,125)"/>
<path d="M0 0 C2.97 0.495 2.97 0.495 6 1 C2.375 4 2.375 4 -1 4 C-0.67 2.68 -0.34 1.36 0 0 Z " fill="#7D5FB8" transform="translate(313,368)"/>
<path d="M0 0 C0.99 0.33 1.98 0.66 3 1 C1.515 3.475 1.515 3.475 0 6 C-1.32 5.67 -2.64 5.34 -4 5 C-3.67 4.01 -3.34 3.02 -3 2 C-2.01 2.33 -1.02 2.66 0 3 C0 2.01 0 1.02 0 0 Z " fill="#866CC0" transform="translate(375,307)"/>
<path d="M0 0 C1.09658936 3.28976808 0.79953138 4.71303767 0 8 C-1.32 8 -2.64 8 -4 8 C-2.87548273 5.0280615 -1.77706209 2.66559313 0 0 Z " fill="#836BBA" transform="translate(135,162)"/>
<path d="M0 0 C2.64465038 3.1254959 3.84414715 6.08788267 5 10 C4.01 9.34 3.02 8.68 2 8 C2 7.01 2 6.02 2 5 C1.34 5 0.68 5 0 5 C-0.33 4.01 -0.66 3.02 -1 2 C-0.67 1.34 -0.34 0.68 0 0 Z " fill="#7757A9" transform="translate(332,289)"/>
<path d="M0 0 C0.33 0 0.66 0 1 0 C1 5.94 1 11.88 1 18 C0.67 18 0.34 18 0 18 C0 12.06 0 6.12 0 0 Z " fill="#E1D1EF" transform="translate(406,237)"/>
<path d="M0 0 C2.08954032 4.17908064 2.16552619 4.80410573 1 9 C0.34 9 -0.32 9 -1 9 C-0.67 6.03 -0.34 3.06 0 0 Z " fill="#755BB6" transform="translate(314,213)"/>
<path d="M0 0 C2.4375 0.8125 2.4375 0.8125 5 2 C5.33 2.99 5.66 3.98 6 5 C3.03 4.505 3.03 4.505 0 4 C0 2.68 0 1.36 0 0 Z " fill="#7D63BC" transform="translate(313,120)"/>
<path d="M0 0 C2.70744416 1.35372208 4.85950154 2.85950154 7 5 C6.01 5.66 5.02 6.32 4 7 C2 5.1875 2 5.1875 0 3 C0 2.01 0 1.02 0 0 Z " fill="#8869CD" transform="translate(259,105)"/>
<path d="M0 0 C0.33 0 0.66 0 1 0 C1 5.61 1 11.22 1 17 C0.67 17 0.34 17 0 17 C0 11.39 0 5.78 0 0 Z " fill="#BEBCC5" transform="translate(93,237)"/>
<path d="M0 0 C2.62187494 1.04874998 3.79371361 1.64931313 5.25 4.125 C5.4975 4.74375 5.745 5.3625 6 6 C4.35 5.67 2.7 5.34 1 5 C0.67 3.35 0.34 1.7 0 0 Z " fill="#7A60BB" transform="translate(335,134)"/>
<path d="M0 0 C0.66 0.33 1.32 0.66 2 1 C0.68 2.32 -0.64 3.64 -2 5 C-2.99 4.67 -3.98 4.34 -5 4 C-3.36587557 2.29159719 -2.13093906 1.06546953 0 0 Z " fill="#8972C0" transform="translate(176,125)"/>
<path d="M0 0 C5.75 0.875 5.75 0.875 8 2 C7.67 2.66 7.34 3.32 7 4 C4.69 3.34 2.38 2.68 0 2 C0 1.34 0 0.68 0 0 Z " fill="#7E64B2" transform="translate(292,112)"/>
<path d="M0 0 C3.3 0 6.6 0 10 0 C10 0.66 10 1.32 10 2 C6.7 1.67 3.4 1.34 0 1 C0 0.67 0 0.34 0 0 Z " fill="#C8CDDE" transform="translate(233,401)"/>
<path d="M0 0 C-6.625 3.125 -6.625 3.125 -10 2 C-3.375 -1.125 -3.375 -1.125 0 0 Z " fill="#D4D3DE" transform="translate(196,100)"/>
<path d="M0 0 C1.9955516 3.99110319 2.19546065 5.69986566 2 10 C1.67 10 1.34 10 1 10 C0.67 6.7 0.34 3.4 0 0 Z " fill="#F2E9F6" transform="translate(95,271)"/>
<path d="M0 0 C-2.35438733 1.42944945 -3.48032433 2.08661261 -6.25 1.625 C-6.8275 1.41875 -7.405 1.2125 -8 1 C-5.07175348 0.02391783 -3.04386724 -0.08226668 0 0 Z " fill="#EAEAF1" transform="translate(292,397)"/>
<path d="M0 0 C0.33 0.66 0.66 1.32 1 2 C0.0625 4.625 0.0625 4.625 -1 7 C-2 4 -2 4 -1.0625 1.8125 C-0.5365625 0.9153125 -0.5365625 0.9153125 0 0 Z " fill="#DBDBF2" transform="translate(107,179)"/>
<path d="M0 0 C4.75 0.75 4.75 0.75 7 3 C2.25 2.25 2.25 2.25 0 0 Z " fill="#F1F1F7" transform="translate(306,100)"/>
<path d="M0 0 C2.31 0.33 4.62 0.66 7 1 C5.1875 1.625 5.1875 1.625 3 2 C2.01 1.34 1.02 0.68 0 0 Z " fill="#F8F6FA" transform="translate(202,395)"/>
<path d="M0 0 C2.125 0.375 2.125 0.375 4 1 C2.02 1.33 0.04 1.66 -2 2 C-1.34 1.34 -0.68 0.68 0 0 Z " fill="#CFCFD2" transform="translate(204,95)"/>
<path d="M0 0 C2.97 0.495 2.97 0.495 6 1 C4.125 1.625 4.125 1.625 2 2 C1.34 1.34 0.68 0.68 0 0 Z " fill="#D6D6E3" transform="translate(283,93)"/>
<path d="M0 0 C2.125 0.375 2.125 0.375 4 1 C2.02 1.33 0.04 1.66 -2 2 C-1.34 1.34 -0.68 0.68 0 0 Z " fill="#C4C4C6" transform="translate(212,93)"/>
<path d="M0 0 C1.98 0.495 1.98 0.495 4 1 C2.35 1.33 0.7 1.66 -1 2 C-0.67 1.34 -0.34 0.68 0 0 Z " fill="#DFDFE8" transform="translate(260,401)"/>
<path d="M0 0 C0.66 0.66 1.32 1.32 2 2 C1.625 4.125 1.625 4.125 1 6 C0.67 4.02 0.34 2.04 0 0 Z " fill="#F1F1F7" transform="translate(97,282)"/>
<path d="M0 0 C1.98 0 3.96 0 6 0 C6 0.33 6 0.66 6 1 C4.02 1 2.04 1 0 1 C0 0.67 0 0.34 0 0 Z " fill="#C6C6C9" transform="translate(273,400)"/>
<path d="M0 0 C0.99 0.33 1.98 0.66 3 1 C1.35 1.33 -0.3 1.66 -2 2 C-1.34 1.34 -0.68 0.68 0 0 Z " fill="#F6F6F9" transform="translate(304,392)"/>
<path d="M0 0 C0.99 0.33 1.98 0.66 3 1 C1.35 1.33 -0.3 1.66 -2 2 C-1.34 1.34 -0.68 0.68 0 0 Z " fill="#F9F9FF" transform="translate(309,390)"/>
<path d="M0 0 C0.66 0.66 1.32 1.32 2 2 C1.67 2.99 1.34 3.98 1 5 C0.67 3.35 0.34 1.7 0 0 Z " fill="#F1F1FA" transform="translate(393,182)"/>
<path d="M0 0 C0.99 0.33 1.98 0.66 3 1 C1.35 1.33 -0.3 1.66 -2 2 C-1.34 1.34 -0.68 0.68 0 0 Z " fill="#DADADA" transform="translate(183,103)"/>
<path d="M0 0 C0.99 0.33 1.98 0.66 3 1 C1.35 1.33 -0.3 1.66 -2 2 C-1.34 1.34 -0.68 0.68 0 0 Z " fill="#C5D4D4" transform="translate(198,97)"/>
<path d="M0 0 C2.475 0.495 2.475 0.495 5 1 C4.01 1.33 3.02 1.66 2 2 C1.34 1.34 0.68 0.68 0 0 Z " fill="#D9D9D9" transform="translate(298,97)"/>
<path d="M0 0 C1.98 0 3.96 0 6 0 C6 0.33 6 0.66 6 1 C4.02 1 2.04 1 0 1 C0 0.67 0 0.34 0 0 Z " fill="#D8D8D8" transform="translate(238,90)"/>
<path d="M0 0 C0.33 0.66 0.66 1.32 1 2 C0.34 2.66 -0.32 3.32 -1 4 C-0.67 2.68 -0.34 1.36 0 0 Z " fill="#DFD9E3" transform="translate(104,187)"/>
<path d="M0 0 C0.99 0.495 0.99 0.495 2 1 C1.67 1.99 1.34 2.98 1 4 C0.67 2.68 0.34 1.36 0 0 Z " fill="#E8E8EC" transform="translate(390,176)"/>
<path d="M0 0 C0.99 0.495 0.99 0.495 2 1 C1.67 1.99 1.34 2.98 1 4 C0.67 2.68 0.34 1.36 0 0 Z " fill="#F4F4F4" transform="translate(388,172)"/>
<path d="M0 0 C1.65 0 3.3 0 5 0 C5 0.33 5 0.66 5 1 C3.35 1 1.7 1 0 1 C0 0.67 0 0.34 0 0 Z " fill="#D2D2E3" transform="translate(255,90)"/>
<path d="M0 0 C4 1 4 1 4 1 Z " fill="#FFFFFF" transform="translate(213,398)"/>
<path d="M0 0 C4 1 4 1 4 1 Z " fill="#F2F2F2" transform="translate(292,396)"/>
<path d="M0 0 C1 4 1 4 1 4 Z " fill="#E0E0E0" transform="translate(404,270)"/>
<path d="M0 0 C1 4 1 4 1 4 Z " fill="#DFDFDF" transform="translate(404,217)"/>
<path d="M0 0 C1 4 1 4 1 4 Z " fill="#E1E1E3" transform="translate(97,207)"/>
<path d="M0 0 C1 4 1 4 1 4 Z " fill="#F7F7F7" transform="translate(100,196)"/>
<path d="M0 0 C3 1 3 1 3 1 Z " fill="#FFFFFF" transform="translate(210,397)"/>
<path d="M0 0 C3 1 3 1 3 1 Z " fill="#FFFFFF" transform="translate(296,395)"/>
<path d="M0 0 C3 1 3 1 3 1 Z " fill="#EBEBEB" transform="translate(299,394)"/>
<path d="" fill="#F7EEF7" transform="translate(0,0)"/>
<path d="" fill="#F0F0F5" transform="translate(0,0)"/>
<path d="" fill="#FFFFFF" transform="translate(0,0)"/>
<path d="" fill="#FFFFFF" transform="translate(0,0)"/>
<path d="" fill="#D8D8D8" transform="translate(0,0)"/>
<path d="" fill="#EFE5EF" transform="translate(0,0)"/>
<path d="" fill="#E6E6E6" transform="translate(0,0)"/>
<path d="" fill="#FFFFFF" transform="translate(0,0)"/>
<path d="" fill="#F3F3F9" transform="translate(0,0)"/>
<path d="" fill="#DCDCDC" transform="translate(0,0)"/>
<path d="" fill="#E8D7F6" transform="translate(0,0)"/>
<path d="M0 0 C3 1 3 1 3 1 Z " fill="#D8D8D8" transform="translate(291,95)"/>
<path d="M0 0 C2 1 2 1 2 1 Z " fill="#DFDFFF" transform="translate(270,401)"/>
<path d="M0 0 C2 1 2 1 2 1 Z " fill="#E5E5E5" transform="translate(266,401)"/>
<path d="M0 0 C2 1 2 1 2 1 Z " fill="#E5E5E5" transform="translate(225,400)"/>
<path d="M0 0 C2 1 2 1 2 1 Z " fill="#FFFFFF" transform="translate(282,399)"/>
<path d="" fill="#F4F4FF" transform="translate(0,0)"/>
<path d="" fill="#E2D5EA" transform="translate(0,0)"/>
<path d="" fill="#D3D3F4" transform="translate(0,0)"/>
<path d="" fill="#FFFFFF" transform="translate(0,0)"/>
<path d="" fill="#FFFFFF" transform="translate(0,0)"/>
<path d="" fill="#E5E5E5" transform="translate(0,0)"/>
<path d="" fill="#FFFFFF" transform="translate(0,0)"/>
<path d="" fill="#E5E5EE" transform="translate(0,0)"/>
<path d="" fill="#E5E5E5" transform="translate(0,0)"/>
<path d="" fill="#DBDBE4" transform="translate(0,0)"/>
<path d="M0 0 C2 1 2 1 2 1 Z " fill="#D2D2D2" transform="translate(304,99)"/>
<path d="M0 0 C2 1 2 1 2 1 Z " fill="#C1C1C1" transform="translate(272,91)"/>
<path d="M0 0 C2 1 2 1 2 1 Z " fill="#BBBBE5" transform="translate(225,91)"/>
<path d="" fill="#CCCCCC" transform="translate(0,0)"/>
<path d="" fill="#CCCCCC" transform="translate(0,0)"/>
<path d="" fill="#BFBFBF" transform="translate(0,0)"/>
<path d="" fill="#FFFFFF" transform="translate(0,0)"/>
<path d="" fill="#FFFFFF" transform="translate(0,0)"/>
<path d="" fill="#FFFFFF" transform="translate(0,0)"/>
<path d="" fill="#FFFFFF" transform="translate(0,0)"/>
<path d="" fill="#FFFFFF" transform="translate(0,0)"/>
<path d="" fill="#FFFFFF" transform="translate(0,0)"/>
<path d="" fill="#FFFFFF" transform="translate(0,0)"/>
<path d="" fill="#FFFFFF" transform="translate(0,0)"/>
<path d="" fill="#FFFFFF" transform="translate(0,0)"/>
<path d="" fill="#FFFFFF" transform="translate(0,0)"/>
</svg>
